<svg width="16" height="16" fill="none" xmlns="http://www.w3.org/2000/svg"><path d="M14.125 0H1.875A1.877 1.877 0 000 1.875v12.25C0 15.159.841 16 1.875 16h12.25A1.877 1.877 0 0016 14.125V1.875A1.877 1.877 0 0014.125 0zm.625 14.125c0 .345-.28.625-.625.625h-3.688v-4.563h2.001l.233-1.937h-2.233V6.156c0-.534.403-.937.937-.937h1.406V3.406c-.37-.052-1.084-.125-1.406-.125-.729 0-1.46.308-2.004.844A2.845 2.845 0 008.5 6.162V8.25H6.469v1.938H8.5v4.562H1.875a.626.626 0 01-.625-.625V1.875c0-.345.28-.625.625-.625h12.25c.345 0 .625.28.625.625v12.25z" fill="#fff"/></svg>