<svg width="16" height="16" fill="none" xmlns="http://www.w3.org/2000/svg"><g clip-path="url(#clip0_413_985)"><path d="M8.157 16h-.159a55.584 55.584 0 01-3.54-.098c-1.033-.063-1.976-.42-2.727-1.032-.725-.591-1.22-1.39-1.471-2.375-.22-.858-.23-1.7-.242-2.513A175.32 175.32 0 010 8.002c.002-.707.01-1.4.018-1.984.011-.814.023-1.655.242-2.513.25-.985.746-1.784 1.47-2.375C2.483.518 3.426.16 4.459.098 5.585.029 6.744-.002 8.001 0a55.97 55.97 0 013.54.098c1.033.062 1.976.42 2.728 1.032.725.591 1.22 1.39 1.47 2.375.22.858.231 1.7.242 2.513.008.585.017 1.277.018 1.98v.003c-.001.704-.01 1.396-.018 1.98-.01.815-.022 1.656-.241 2.514-.252.985-.746 1.784-1.471 2.375-.752.612-1.695.97-2.728 1.032-1.08.066-2.188.098-3.384.098zm-.159-1.25a54.504 54.504 0 003.467-.095c.781-.048 1.459-.301 2.014-.754.513-.418.866-.995 1.05-1.715.182-.714.192-1.48.202-2.222.008-.58.017-1.267.018-1.964-.001-.697-.01-1.384-.018-1.965-.01-.74-.02-1.507-.202-2.22-.184-.72-.537-1.298-1.05-1.716-.555-.453-1.232-.706-2.014-.754a54.617 54.617 0 00-3.464-.095 54.472 54.472 0 00-3.467.095c-.781.048-1.458.301-2.013.754-.513.418-.867.995-1.05 1.715-.182.714-.193 1.48-.203 2.221-.008.581-.016 1.269-.018 1.966.002.695.01 1.383.018 1.963.01.742.02 1.508.203 2.222.183.72.537 1.297 1.05 1.715.555.453 1.232.706 2.013.754 1.1.067 2.234.098 3.464.095zm-.03-2.844A3.91 3.91 0 014.062 8a3.91 3.91 0 013.906-3.906A3.91 3.91 0 0111.875 8a3.91 3.91 0 01-3.907 3.906zm0-6.562A2.66 2.66 0 005.312 8a2.66 2.66 0 002.656 2.656A2.66 2.66 0 0010.625 8a2.66 2.66 0 00-2.657-2.656zm4.344-2.5a.938.938 0 100 1.875.938.938 0 000-1.875z" fill="#fff"/></g><defs><clipPath id="clip0_413_985"><path fill="#fff" d="M0 0h16v16H0z"/></clipPath></defs></svg>