<svg width="16" height="16" fill="none" xmlns="http://www.w3.org/2000/svg"><g clip-path="url(#clip0_413_991)"><path d="M16 3.031c-.6.266-1.255.423-1.906.5A3.277 3.277 0 0015.53 1.72a6.468 6.468 0 01-2.058.812A3.226 3.226 0 0011.125 1.5c-.844 0-1.65.285-2.296.892a3.298 3.298 0 00-1.048 2.39c0 .248.04.499.098.747a9.302 9.302 0 01-6.754-3.435A3.322 3.322 0 00.656 3.75a3.278 3.278 0 001.469 2.719c-.522-.016-1.043-.12-1.5-.375v.06c0 1.562 1.125 2.849 2.656 3.159a3.76 3.76 0 01-.903.126h-.003c-.22 0-.44-.023-.656-.064.43 1.337 1.752 2.317 3.156 2.344-1.162.913-2.969 1.344-4.094 1.344-.26-.001-.522 0-.781-.032A9.29 9.29 0 005.02 14.5h.012v.003c6 0 9.343-5.004 9.343-9.342 0-.142-.022-.301-.031-.442A6.706 6.706 0 0016 3.03zM12.59 8.01a8.428 8.428 0 01-1.573 2.621 7.65 7.65 0 01-2.52 1.889c-.984.457-2.071.702-3.234.73l-.234.001h-.01c-.067 0-.135 0-.202-.003.294-.162.574-.344.83-.546.646-.599.934-1.358 1.04-2.198 0 0-.526.063-1.125.06-.464-.004-.971-.042-1.313-.219.85-.382 1.296-1.015 1.478-1.813-.727.063-2.415-.312-3.02-.794C3.375 7.5 4 7 4.25 6.594c0 0-1.188-.563-2.026-1.769a10.544 10.544 0 005.593 1.952l1.652.067-.342-1.467-.064-.29a1.705 1.705 0 01-.032-.304c.001-.55.24-1.09.654-1.48.39-.367.875-.553 1.44-.553.418 0 .83.143 1.172.4.547.475.828 1.1.828 2.01 0 .936-.185 1.92-.536 2.85z" fill="#fff"/></g><defs><clipPath id="clip0_413_991"><path fill="#fff" d="M0 0h16v16H0z"/></clipPath></defs></svg>