<svg width="16" height="16" fill="none" xmlns="http://www.w3.org/2000/svg"><g clip-path="url(#clip0_413_972)"><path d="M8 13.813h-.005c-.483-.004-4.75-.043-5.96-.37a2.473 2.473 0 01-1.74-1.739C-.02 10.518 0 8.23.001 8.047c-.002-.182-.022-2.488.293-3.685l.001-.004a2.525 2.525 0 011.738-1.75l.006-.002c1.196-.314 5.472-.352 5.956-.356h.009c.484.004 4.763.042 5.961.37.843.227 1.51.892 1.738 1.736.329 1.199.298 3.51.295 3.705.002.192.021 2.458-.293 3.652l-.001.004a2.473 2.473 0 01-1.741 1.739h-.003c-1.196.315-5.473.353-5.956.357h-.005zm-6.498-9.13c-.277 1.056-.251 3.333-.251 3.356v.016c-.008.632.02 2.46.251 3.326.112.415.441.743.859.855.892.242 4.368.318 5.638.326 1.274-.008 4.756-.082 5.641-.314a1.22 1.22 0 00.856-.855c.231-.879.26-2.698.252-3.325v-.02c.011-.64-.011-2.489-.25-3.362l-.001-.002a1.22 1.22 0 00-.859-.858C12.755 3.585 9.273 3.51 8 3.5c-1.273.01-4.75.083-5.639.314a1.257 1.257 0 00-.858.868zm13.598 6.87zm-8.694-.992V5.5l4.375 2.531-4.375 2.531z" fill="#fff"/></g><defs><clipPath id="clip0_413_972"><path fill="#fff" d="M0 0h16v16H0z"/></clipPath></defs></svg>